<?xml version="1.0"?>
<svg xmlns="http://www.w3.org/2000/svg" height="512px" viewBox="-68 0 512 512.00062" width="512px"><path d="m250.257812 332.714844c57.667969-24.78125 94.894532-81.671875 94.894532-144.066406 0-140.144532-170.03125-209-267.847656-111.1875-67.03125 67.03125-59.683594 177.09375 14.382812 234.773437 35.355469 27.535156 82.011719 39.578125 128.230469 30.023437 4.101562-.851562 6.738281-4.863281 5.890625-8.960937-.847656-4.101563-4.863282-6.734375-8.960938-5.890625-9.4375 1.953125-19.078125 2.941406-28.652344 2.941406-126.957031 0-188.699218-153.632812-100.167968-242.160156 77.027344-77.023438 212.007812-41.878906 238.082031 67.480469 16 67.117187-18.664063 135.96875-81.835937 163.117187-3.847657 1.652344-5.628907 6.109375-3.972657 9.957032 1.652344 3.851562 6.113281 5.628906 9.957031 3.972656zm0 0" fill="#FFFFFF"/><path d="m323.84375 57.84375c-83.402344-87.871094-232.738281-75.089844-297.382812 34.679688-2.125 3.605468-.925782 8.253906 2.683593 10.378906s8.257813.925781 10.382813-2.683594c31.347656-53.230469 86.929687-85.007812 148.691406-85.007812 128.457031 0 206.921875 133.542968 158.292969 242.632812-1.703125 3.824219.015625 8.308594 3.839843 10.011719 3.808594 1.699219 8.300782 0 10.011719-3.835938 31.734375-71.1875 14.53125-152.386719-36.519531-206.175781zm0 0" fill="#FFFFFF"/><path d="m342.90625 281.085938c-3.578125-2.183594-8.242188-1.054688-10.421875 2.519531l-120.652344 197.636719c-13.367187 21.894531-35.234375 19.652343-47.265625-.054688l-124.824218-204.480469c-27.425782-45.789062-32.164063-100.3125-12.859376-150.335937 1.507813-3.90625-.4375-8.296875-4.34375-9.804688-3.90625-1.507812-8.296874.4375-9.804687 4.34375-21.210937 54.960938-15.515625 114.316406 14.03125 163.644532l124.859375 204.535156c17.507812 28.683594 53.441406 32.335937 73.148438.058594l120.652343-197.640626c2.183594-3.574218 1.054688-8.242187-2.519531-10.421874zm0 0" fill="#FFFFFF"/><path d="m92.640625 209.980469c0 14.238281 9.148437 26.378906 21.867187 30.859375 3.789063 13.675781 13.445313 27.214844 28.113282 39.082031 15.125 12.265625 33.324218 20.816406 44.261718 20.816406 19.71875 0 62.601563-26.703125 72.125-59.039062 14.207032-3.550781 24.75-16.421875 24.75-31.707031 0-14.546876-9.542968-26.890626-22.6875-31.128907v-9.148437h2.144532c6.21875 0 11.273437-5.054688 11.273437-11.273438v-52.574218c0-9.449219-4.800781-17.8125-12.101562-22.753907v-3.488281c0-6.308594-5.660157-11.242188-12.878907-11.242188h-105.914062c-26.398438 0-47.082031 15.273438-47.082031 34.777344v54.179688c0 8.027344 6.84375 14.507812 16.183593 15.964844v6.53125c-11.765624 4.941406-20.054687 16.597656-20.054687 30.144531zm20.054687 12.132812c-3.03125-3.152343-4.890624-7.417969-4.890624-12.132812 0-4.710938 1.859374-8.976563 4.890624-12.128907zm148.375-26.507812c4.542969 3.175781 7.523438 8.441406 7.523438 14.386719 0 5.945312-2.980469 11.203124-7.523438 14.367187zm-15.164062 32.273437c0 30.242188-45.1875 57.695313-59.023438 57.695313-11.433593 0-45.269531-19.226563-55.824218-43.402344-2.023438-4.621094-3.195313-9.410156-3.195313-14.292969v-35.246094c0-3.796874 0-12.355468 0-19.027343 1.191407-.175781 44.296875 2.730469 87.964844-25.757813 2.589844 12.464844 13.660156 21.867188 26.882813 21.867188h3.195312zm12.78125-125.902344c1.132812 3.34375.414062 1.265626.636719 52.574219-10.160157 0-10.644531 0-16.613281 0-6.78125 0-12.292969-5.523437-12.292969-12.304687v-5.226563c11.121093-9.386719 22.441406-21.722656 28.269531-35.042969zm-147.011719 54.9375v-53.753906c0-6.421875 5.339844-12.242187 13.375-15.84375 11.648438-5.242187 11.832031-3.769531 122.171875-3.769531-.144531 2.289063 1.039063 7.21875-5.257812 17.855469-16.941406 28.644531-62.445313 57.039062-112.878906 57.039062-10.832032 0-15.484376.507813-17.410157-1.527344zm0 0" fill="#FFFFFF"/><path d="m219.15625 202.90625c-6.3125 2.785156-6.253906 11.773438.058594 14.476562 5.074218 2.210938 11.011718-1.5 11.011718-7.25 0-5.785156-5.996093-9.5-11.070312-7.226562zm0 0" fill="#FFFFFF"/><path d="m210.148438 176.09375c-4.09375.859375-6.722657 4.871094-5.875 8.976562.859374 4.09375 4.875 6.734376 8.96875 5.875 5.402343-1.113281 15.6875-1.640624 20.382812 1.3125 1.253906.789063 2.648438 1.175782 4.023438 1.175782 7.601562 0 10.457031-9.972656 4.042968-14.015625-8.457031-5.320313-21.929687-5.296875-31.542968-3.324219zm0 0" fill="#FFFFFF"/><path d="m154.066406 202.238281c-4.355468 0-7.894531 3.539063-7.894531 7.894531 0 5.699219 5.84375 9.453126 11 7.261719 2.808594-1.214843 4.78125-4.003906 4.78125-7.261719 0-4.324218-3.503906-7.894531-7.886719-7.894531zm0 0" fill="#FFFFFF"/><path d="m172.125 185.070312c.847656-4.105468-1.78125-8.117187-5.875-8.976562-9.621094-1.976562-23.085938-1.996094-31.542969 3.324219-3.550781 2.234375-4.609375 6.917969-2.386719 10.464843 2.207032 3.492188 6.84375 4.648438 10.453126 2.375 4.769531-2.96875 14.90625-2.433593 20.394531-1.3125 4.082031.847657 8.097656-1.78125 8.957031-5.875zm0 0" fill="#FFFFFF"/><path d="m203.375 233.789062c-4.1875 0-7.582031 3.394532-7.582031 7.582032s-3.40625 7.59375-7.59375 7.59375c-4.191407 0-7.597657-3.40625-7.597657-7.59375s-3.394531-7.582032-7.582031-7.582032c-14.472656 0-7.394531 30.34375 15.179688 30.34375 22.449219 0 29.851562-30.34375 15.175781-30.34375zm0 0" fill="#FFFFFF"/></svg>
