<?xml version="1.0"?>
<svg xmlns="http://www.w3.org/2000/svg" height="512px" viewBox="-67 0 512 512.001" width="512px"><path d="m323.734375 56.328125c-35.820313-36.28125-83.679687-56.2851562-134.785156-56.328125-51.082031.0429688-98.941407 20.046875-134.714844 56.28125-35.851563 35.847656-54.601563 80.933594-54.2265625 130.390625.3515625 46.496094 17.3124995 93.640625 49.0546875 136.335937 18.988281 25.535157 58.589844 68.953126 90.617188 103.089844-32.527344 7.457032-52.042969 22.273438-52.042969 40.402344 0 29.871094 50.972656 45.5 101.324219 45.5 50.351562 0 101.320312-15.628906 101.320312-45.5 0-18.128906-19.515625-32.949219-52.046875-40.402344 3.390625-3.617187 6.726563-7.183594 9.976563-10.679687 3.765624-4.042969 3.535156-10.367188-.503907-14.132813-4.042969-3.761718-10.371093-3.535156-14.136719.507813-14.070312 15.117187-29.683593 31.625-44.609374 47.167969-25.570313-26.644532-97.164063-101.996094-123.847657-137.886719-61.5-82.71875-60.21875-177.179688 3.304688-240.695313 32.039062-32.449218 74.847656-50.339844 120.53125-50.378906 45.703125.039062 88.515625 17.929688 120.597656 50.425781 63.476563 63.46875 64.757813 157.929688 3.257813 240.648438-5.492188 7.386719-13.289063 16.980469-23.183594 28.511719-3.59375 4.191406-3.109375 10.503906 1.078125 14.101562 4.195312 3.59375 10.507812 3.113281 14.101562-1.082031 10.195313-11.882813 18.289063-21.839844 24.054688-29.601563 31.742187-42.695312 48.707031-89.839844 49.058593-136.332031.371094-49.457031-18.378906-94.542969-54.179687-130.34375zm-142 413.960937c1.886719 1.972657 4.496094 3.089844 7.226563 3.089844 2.730468 0 5.339843-1.117187 7.226562-3.089844l.796875-.828124c8.140625-8.4375 16.589844-17.273438 24.972656-26.109376 32.9375 5.050782 48.324219 16.613282 48.324219 23.148438 0 8.65625-28.703125 25.5-81.320312 25.5-52.617188 0-81.320313-16.84375-81.320313-25.5 0-6.535156 15.382813-18.097656 48.320313-23.148438 10.550781 11.121094 19.363281 20.292969 24.992187 26.128907zm0 0" fill="#232323"/><path d="m189.058594 331.144531c-76.398438 0-138.550782-62.148437-138.550782-138.539062s62.152344-138.539063 138.550782-138.539063c76.398437 0 138.554687 62.148438 138.554687 138.539063s-62.15625 138.539062-138.554687 138.539062zm0-257.078125c-65.371094 0-118.550782 53.175782-118.550782 118.539063s53.179688 118.539062 118.550782 118.539062 118.554687-53.175781 118.554687-118.539062-53.183593-118.539063-118.554687-118.539063zm0 0" fill="#232323"/><path d="m262.324219 166.894531-13.335938-12v-16.726562c0-5.523438-4.476562-10-10-10-5.113281 0-9.332031 3.839843-9.925781 8.796875l-33.3125-29.976563c-3.804688-3.421875-9.574219-3.421875-13.378906 0l-66.574219 59.90625c-4.105469 3.695313-4.441406 10.015625-.746094 14.121094 3.695313 4.105469 10.015625 4.441406 14.125.746094l59.882813-53.886719 59.886718 53.886719c1.910157 1.71875 4.300782 2.566406 6.6875 2.566406 2.734376 0 5.460938-1.117187 7.433594-3.3125 3.695313-4.105469 3.363282-10.425781-.742187-14.121094zm0 0" fill="#232323"/><path d="m214.238281 268.40625c-2.285156 0-4.574219-.484375-6.71875-1.460938l-18.433593-8.429687-18.4375 8.429687c-5.296876 2.421876-11.519532 1.796876-16.234376-1.625-4.714843-3.425781-7.226562-9.148437-6.5625-14.9375l2.320313-20.136718-13.710937-14.929688c-3.941407-4.292968-5.273438-10.402344-3.472657-15.941406 1.800781-5.542969 6.46875-9.703125 12.179688-10.859375l19.867187-4.015625 9.960938-17.652344c2.863281-5.078125 8.261718-8.230468 14.089844-8.230468 5.828124 0 11.226562 3.15625 14.089843 8.230468l9.960938 17.652344 19.867187 4.019531c5.710938 1.152344 10.375 5.3125 12.175782 10.855469 1.800781 5.539062.472656 11.648438-3.46875 15.941406l-13.710938 14.929688 2.316406 20.136718c.667969 5.789063-1.847656 11.511719-6.5625 14.9375-2.808594 2.039063-6.152344 3.085938-9.515625 3.085938zm-25.152343-30.882812c1.417968 0 2.835937.300781 4.15625.902343l16.433593 7.511719-2.066406-17.945312c-.332031-2.886719.605469-5.769532 2.566406-7.910157l12.222657-13.304687-17.707032-3.582032c-2.847656-.574218-5.300781-2.355468-6.726562-4.886718l-8.878906-15.734375-8.878907 15.734375c-1.425781 2.53125-3.878906 4.3125-6.726562 4.890625l-17.707031 3.578125 12.222656 13.308594c1.960937 2.136718 2.902344 5.023437 2.570312 7.90625l-2.066406 17.945312 16.429688-7.507812c1.316406-.605469 2.734374-.90625 4.15625-.90625zm39.953124-29.402344h.007813zm0 0" fill="#232323"/><path d="m269.53125 387.421875c-.648438 0-1.300781-.070313-1.949219-.203125-.640625-.128906-1.273437-.320312-1.871093-.570312-.601563-.25-1.191407-.558594-1.730469-.917969-.539063-.359375-1.058594-.78125-1.519531-1.242188-1.859376-1.859375-2.929688-4.4375-2.929688-7.066406 0-2.640625 1.070312-5.210937 2.929688-7.070313.460937-.460937.980468-.882812 1.519531-1.25.539062-.363281 1.128906-.671874 1.730469-.921874.601562-.25 1.230468-.441407 1.871093-.570313 1.289063-.257813 2.617188-.257813 3.910157 0 .640624.128906 1.269531.320313 1.867187.570313.601563.25 1.179687.558593 1.730469.921874.539062.367188 1.050781.789063 1.519531 1.25 1.859375 1.859376 2.921875 4.429688 2.921875 7.070313 0 2.628906-1.0625 5.207031-2.921875 7.066406-.46875.460938-.976563.882813-1.519531 1.242188-.550782.359375-1.128906.667969-1.730469.917969-.597656.25-1.226563.441406-1.867187.570312-.652344.132812-1.300782.203125-1.960938.203125zm0 0" fill="#232323"/></svg>
